<?xml version="1.0" encoding="UTF-8" standalone="no"?>
<svg
   xmlns:dc="http://purl.org/dc/elements/1.1/"
   xmlns:cc="http://creativecommons.org/ns#"
   xmlns:rdf="http://www.w3.org/1999/02/22-rdf-syntax-ns#"
   xmlns:svg="http://www.w3.org/2000/svg"
   xmlns="http://www.w3.org/2000/svg"
   xmlns:sodipodi="http://sodipodi.sourceforge.net/DTD/sodipodi-0.dtd"
   xmlns:inkscape="http://www.inkscape.org/namespaces/inkscape"
   width="210mm"
   height="297mm"
   viewBox="0 0 210 297"
   version="1.1"
   id="svg8"
   inkscape:version="1.0.2-2 (e86c870879, 2021-01-15)"
   sodipodi:docname="Seitenwangen_V2.svg">
  <defs
     id="defs2">
    <inkscape:path-effect
       effect="fillet_chamfer"
       id="path-effect1206"
       is_visible="true"
       lpeversion="1"
       satellites_param="F,0,0,1,0,8.5526249,0,1 @ F,0,0,1,0,8.1517206,0,1 @ F,0,0,1,0,0,0,1 @ F,0,0,1,0,0,0,1"
       unit="px"
       method="auto"
       mode="F"
       radius="40"
       chamfer_steps="1"
       flexible="false"
       use_knot_distance="true"
       apply_no_radius="true"
       apply_with_radius="true"
       only_selected="true"
       hide_knots="false" />
    <inkscape:path-effect
       effect="fillet_chamfer"
       id="path-effect1042"
       is_visible="true"
       lpeversion="1"
       satellites_param="F,0,0,1,0,8.5526249,0,1 @ F,0,0,1,0,8.1517206,0,1 @ F,0,0,1,0,0,0,1 @ F,0,0,1,0,0,0,1"
       unit="px"
       method="auto"
       mode="F"
       radius="40"
       chamfer_steps="1"
       flexible="false"
       use_knot_distance="true"
       apply_no_radius="true"
       apply_with_radius="true"
       only_selected="true"
       hide_knots="false" />
    <inkscape:path-effect
       effect="fillet_chamfer"
       id="path-effect238"
       is_visible="true"
       lpeversion="1"
       nodesatellites_param="F,0,0,1,0,8.2020833,0,1 @ F,0,0,1,0,8.2020833,0,1 @ F,0,0,1,0,0,0,1 @ F,0,0,1,0,0,0,1"
       unit="px"
       method="auto"
       mode="F"
       radius="40"
       chamfer_steps="1"
       flexible="false"
       use_knot_distance="true"
       apply_no_radius="true"
       apply_with_radius="true"
       only_selected="true"
       hide_knots="false"
       satellites_param="F,0,0,1,0,10.583333,0,1 @ F,0,0,1,0,10.583333,0,1 @ F,0,0,1,0,10.583333,0,1 @ F,0,0,1,0,10.583333,0,1" />
    <inkscape:path-effect
       effect="fillet_chamfer"
       id="path-effect238-0"
       is_visible="true"
       lpeversion="1"
       nodesatellites_param="F,0,0,1,0,8.2020833,0,1 @ F,0,0,1,0,8.2020833,0,1 @ F,0,0,1,0,0,0,1 @ F,0,0,1,0,0,0,1"
       unit="px"
       method="auto"
       mode="F"
       radius="40"
       chamfer_steps="1"
       flexible="false"
       use_knot_distance="true"
       apply_no_radius="true"
       apply_with_radius="true"
       only_selected="true"
       hide_knots="false" />
    <inkscape:path-effect
       effect="fillet_chamfer"
       id="path-effect238-2"
       is_visible="true"
       lpeversion="1"
       nodesatellites_param="F,0,0,1,0,8.2020833,0,1 @ F,0,0,1,0,8.2020833,0,1 @ F,0,0,1,0,0,0,1 @ F,0,0,1,0,0,0,1"
       unit="px"
       method="auto"
       mode="F"
       radius="40"
       chamfer_steps="1"
       flexible="false"
       use_knot_distance="true"
       apply_no_radius="true"
       apply_with_radius="true"
       only_selected="true"
       hide_knots="false" />
    <inkscape:path-effect
       effect="fillet_chamfer"
       id="path-effect238-29"
       is_visible="true"
       lpeversion="1"
       nodesatellites_param="F,0,0,1,0,8.2020833,0,1 @ F,0,0,1,0,8.2020833,0,1 @ F,0,0,1,0,0,0,1 @ F,0,0,1,0,0,0,1"
       unit="px"
       method="auto"
       mode="F"
       radius="40"
       chamfer_steps="1"
       flexible="false"
       use_knot_distance="true"
       apply_no_radius="true"
       apply_with_radius="true"
       only_selected="true"
       hide_knots="false" />
    <inkscape:path-effect
       effect="fillet_chamfer"
       id="path-effect238-4"
       is_visible="true"
       lpeversion="1"
       nodesatellites_param="F,0,0,1,0,8.2020833,0,1 @ F,0,0,1,0,8.2020833,0,1 @ F,0,0,1,0,0,0,1 @ F,0,0,1,0,0,0,1"
       unit="px"
       method="auto"
       mode="F"
       radius="40"
       chamfer_steps="1"
       flexible="false"
       use_knot_distance="true"
       apply_no_radius="true"
       apply_with_radius="true"
       only_selected="true"
       hide_knots="false"
       satellites_param="F,0,0,1,0,10.583333,0,1 @ F,0,0,1,0,10.583333,0,1 @ F,0,0,1,0,10.583333,0,1 @ F,0,0,1,0,10.583333,0,1" />
  </defs>
  <sodipodi:namedview
     id="base"
     pagecolor="#ffffff"
     bordercolor="#666666"
     borderopacity="1.0"
     inkscape:pageopacity="0.0"
     inkscape:pageshadow="2"
     inkscape:zoom="1.979899"
     inkscape:cx="36.19112"
     inkscape:cy="196.24443"
     inkscape:document-units="mm"
     inkscape:current-layer="layer1-1"
     inkscape:document-rotation="0"
     showgrid="false"
     inkscape:window-width="1920"
     inkscape:window-height="1017"
     inkscape:window-x="-8"
     inkscape:window-y="-8"
     inkscape:window-maximized="1" />
  <metadata
     id="metadata5">
    <rdf:RDF>
      <cc:Work
         rdf:about="">
        <dc:format>image/svg+xml</dc:format>
        <dc:type
           rdf:resource="http://purl.org/dc/dcmitype/StillImage" />
        <dc:title></dc:title>
      </cc:Work>
    </rdf:RDF>
  </metadata>
  <g
     inkscape:label="Ebene 1"
     inkscape:groupmode="layer"
     id="layer1">
    <g
       inkscape:label="Ebene 1"
       id="layer1-1"
       transform="translate(2.6108981,2.1904162)">
      <path
         style="fill:none;stroke:#0000ff;stroke-width:0.444;stroke-linejoin:round"
         id="rect234"
         width="19.692114"
         height="101.74065"
         x="-1.0833089"
         y="-1.0833089"
         sodipodi:type="rect"
         inkscape:path-effect="#path-effect1042"
         d="m 7.469316,-1.0833089 h 2.987768 a 8.1517206,8.1517206 45 0 1 8.151721,8.1517206 l 0,93.5889283 H -1.0833089 V 7.469316 A 8.5526249,8.5526249 135 0 1 7.469316,-1.0833089 Z" />
      <circle
         style="fill:none;stroke:#ff0000;stroke-width:0.444;stroke-linejoin:round;stroke-opacity:1"
         id="path292"
         cx="8.9847479"
         cy="3.6930835"
         r="1" />
      <path
         style="fill:none;stroke:#ff0000;stroke-width:0.444;stroke-dasharray:none;stroke-opacity:1"
         d="M 5.8606146,9.7072791 C 5.5278056,10.282975 5.2323043,10.77478 5.2039355,10.800185 l -0.051615,0.04614 H 3.8832509 c -1.1782709,0 -1.2722028,-0.0024 -1.3128596,-0.03591 -0.073762,-0.06047 -1.2742886,-2.1603339 -1.2742886,-2.2288039 0,-0.08718 1.2179532,-2.1926887 1.2945566,-2.2379438 0.049925,-0.029549 0.1913827,-0.033098 1.2946284,-0.033017 1.1423089,0 1.2430131,0.00318 1.2961993,0.035914 0.041389,0.025689 0.2307199,0.3360617 0.6721651,1.1019804 0.4997848,0.8671544 0.6142589,1.0797814 0.6132682,1.1390794 -8.055e-4,0.05701 -0.1331231,0.301074 -0.606335,1.119632 z"
         id="path13594" />
      <path
         style="fill:none;stroke:#ff0000;stroke-width:0.444;stroke-dasharray:none;stroke-opacity:1"
         d="m 5.8536815,15.188263 c -0.4414452,0.76592 -0.6307421,1.076253 -0.6721642,1.101981 -0.05323,0.03302 -0.1538914,0.03583 -1.2961993,0.03591 -1.1032458,0 -1.2446631,-0.0032 -1.2946293,-0.03302 -0.076578,-0.04525 -1.2945567,-2.15076 -1.2945567,-2.237936 0,-0.06845 1.2005685,-2.16834 1.2742887,-2.228805 0.040664,-0.03333 0.1345896,-0.03591 1.3128596,-0.03591 h 1.2690708 l 0.051615,0.04614 c 0.028349,0.02537 0.3244267,0.519435 0.6579112,1.09786 0.4609161,0.799466 0.6063279,1.067976 0.6063279,1.119633 0,0.0517 -0.147248,0.323436 -0.614493,1.134128 z"
         id="path13592" />
      <path
         style="fill:none;stroke:#ff0000;stroke-width:0.444;stroke-dasharray:none;stroke-opacity:1"
         d="M 5.8631191,20.645274 C 5.5308012,21.220261 5.2352356,21.714377 5.206311,21.743309 l -0.052585,0.05259 H 3.8934726 c -1.2282607,0 -1.2616457,-8.05e-4 -1.3151624,-0.04107 -0.032854,-0.02456 -0.2988601,-0.461737 -0.6618895,-1.087777 -0.550629,-0.949547 -0.6069798,-1.055292 -0.6069798,-1.139078 0,-0.08379 0.056364,-0.189531 0.6069798,-1.13908 0.3630294,-0.62604 0.6290512,-1.063224 0.6618895,-1.087777 0.053549,-0.04002 0.086901,-0.04107 1.3152351,-0.04107 h 1.2603254 l 0.059187,0.0616 c 0.032527,0.0339 0.3282833,0.528743 0.6571622,1.099735 0.4679216,0.812399 0.5978646,1.05341 0.5975341,1.108295 -3.778e-4,0.05411 -0.1381402,0.30841 -0.6046361,1.115567 z"
         id="path13590" />
      <path
         style="fill:none;stroke:#ff0000;stroke-width:0.444;stroke-dasharray:none;stroke-opacity:1"
         d="m 5.8606146,26.126474 c -0.332809,0.575696 -0.6283103,1.067501 -0.6566791,1.092898 l -0.051615,0.04622 H 3.8832509 c -1.1782709,0 -1.2722028,-0.0024 -1.3128596,-0.03591 -0.073762,-0.06047 -1.2742886,-2.160327 -1.2742886,-2.228806 0,-0.08717 1.2179532,-2.192688 1.2945566,-2.237935 0.049925,-0.02955 0.1913827,-0.0331 1.2946284,-0.03302 1.1423089,0 1.2430131,0.0032 1.2961993,0.03591 0.041389,0.02569 0.2307199,0.336062 0.6721651,1.101982 0.4997848,0.867155 0.6142589,1.07978 0.6132682,1.139087 -8.055e-4,0.05701 -0.1331231,0.301066 -0.606335,1.119632 z"
         id="path13588" />
      <path
         style="fill:none;stroke:#ff0000;stroke-width:0.444;stroke-dasharray:none;stroke-opacity:1"
         d="m 5.8536815,31.607449 c -0.4414452,0.765919 -0.6307421,1.076262 -0.6721642,1.101982 -0.05323,0.03302 -0.1538914,0.03583 -1.2961993,0.03591 -1.1032458,0 -1.2446631,-0.0032 -1.2946293,-0.03302 -0.076578,-0.04525 -1.2945567,-2.150761 -1.2945567,-2.237945 0,-0.06845 1.2005685,-2.168331 1.2742887,-2.228805 0.040664,-0.03333 0.1345896,-0.03592 1.3128596,-0.03592 h 1.2690708 l 0.051615,0.04614 c 0.028349,0.02537 0.3244267,0.519432 0.6579112,1.097857 0.4609161,0.799467 0.6063279,1.067977 0.6063279,1.119633 0,0.0517 -0.147248,0.323445 -0.614493,1.134128 z"
         id="path13586" />
      <path
         style="fill:none;stroke:#ff0000;stroke-width:0.444;stroke-dasharray:none;stroke-opacity:1"
         d="M 5.8631191,37.064469 C 5.5308012,37.639455 5.2352356,38.133572 5.206311,38.162495 l -0.052585,0.05259 H 3.8934726 c -1.2282607,0 -1.2616457,-8.06e-4 -1.3151624,-0.04107 -0.032854,-0.02456 -0.2988601,-0.461726 -0.6618895,-1.087767 -0.550629,-0.949555 -0.6069798,-1.0553 -0.6069798,-1.139087 0,-0.08378 0.056364,-0.18953 0.6069798,-1.139078 0.3630294,-0.626041 0.6290512,-1.063218 0.6618895,-1.08777 0.053549,-0.04001 0.086901,-0.04106 1.3152351,-0.04106 h 1.2603254 l 0.059187,0.0616 c 0.032527,0.0339 0.3282833,0.528741 0.6571622,1.099727 0.4679216,0.812398 0.5978646,1.053408 0.5975341,1.108293 -3.778e-4,0.05419 -0.1381402,0.308419 -0.6046361,1.115574 z"
         id="path13584" />
      <path
         style="fill:none;stroke:#ff0000;stroke-width:0.444;stroke-dasharray:none;stroke-opacity:1"
         d="m 5.8606146,42.545661 c -0.332809,0.575695 -0.6283103,1.0675 -0.6566791,1.092898 l -0.051615,0.04614 H 3.8832509 c -1.1782709,0 -1.2722028,-0.0024 -1.3128596,-0.03591 -0.073762,-0.06047 -1.2742886,-2.160335 -1.2742886,-2.228805 0,-0.08718 1.2179532,-2.192689 1.2945566,-2.237944 0.049925,-0.02955 0.1913827,-0.0331 1.2946284,-0.03302 1.1423089,0 1.2430131,0.0032 1.2961993,0.03591 0.041389,0.02569 0.2307199,0.336063 0.6721651,1.101983 0.4997848,0.867155 0.6142589,1.079773 0.6132682,1.139078 -8.055e-4,0.05701 -0.1331231,0.301075 -0.606335,1.119634 z"
         id="path13582" />
      <path
         style="fill:none;stroke:#ff0000;stroke-width:0.444;stroke-dasharray:none;stroke-opacity:1"
         d="m 5.8536815,48.026635 c -0.4414452,0.765921 -0.6307421,1.076261 -0.6721642,1.101982 -0.05323,0.03302 -0.1538914,0.03583 -1.2961993,0.03592 -1.1032458,0 -1.2446631,-0.0032 -1.2946293,-0.03302 -0.076578,-0.04526 -1.2945567,-2.150759 -1.2945567,-2.237935 0,-0.06845 1.2005685,-2.168339 1.2742887,-2.228814 0.040664,-0.03333 0.1345896,-0.03591 1.3128596,-0.03591 h 1.2690708 l 0.051615,0.04614 c 0.028349,0.02537 0.3244267,0.519432 0.6579112,1.097849 0.4609161,0.799467 0.6063279,1.067977 0.6063279,1.119642 0,0.0517 -0.147248,0.323436 -0.614493,1.134118 z"
         id="path13580" />
      <path
         style="fill:none;stroke:#ff0000;stroke-width:0.444;stroke-dasharray:none;stroke-opacity:1"
         d="M 5.8631191,53.483655 C 5.5308012,54.058642 5.2352356,54.552758 5.206311,54.58169 L 5.153726,54.63428 H 3.8934726 c -1.2282607,0 -1.2616457,-8.06e-4 -1.3151624,-0.04107 -0.032854,-0.02456 -0.2988601,-0.461727 -0.6618895,-1.087766 -0.550629,-0.949549 -0.6069798,-1.055301 -0.6069798,-1.13908 0,-0.08379 0.056364,-0.189532 0.6069798,-1.13908 0.3630294,-0.626048 0.6290512,-1.063224 0.6618895,-1.087777 0.053549,-0.04001 0.086901,-0.04107 1.3152351,-0.04107 h 1.2603254 l 0.059187,0.0616 c 0.032527,0.03382 0.3282833,0.528742 0.6571622,1.099728 0.4679216,0.812397 0.5978646,1.053416 0.5975341,1.108293 -3.778e-4,0.05419 -0.1381402,0.308418 -0.6046361,1.115574 z"
         id="path13578" />
      <path
         style="fill:none;stroke:#ff0000;stroke-width:0.444;stroke-dasharray:none;stroke-opacity:1"
         d="m 5.8606146,58.964846 c -0.332809,0.575697 -0.6283103,1.06751 -0.6566791,1.092906 l -0.051615,0.04614 H 3.8832509 c -1.1782709,0 -1.2722028,-0.0024 -1.3128596,-0.03592 -0.073762,-0.06047 -1.2742886,-2.160335 -1.2742886,-2.228805 0,-0.08718 1.2179532,-2.19269 1.2945566,-2.237945 0.049925,-0.02955 0.1913827,-0.0331 1.2946284,-0.03302 1.1423089,0 1.2430131,0.0032 1.2961993,0.03592 0.041389,0.02569 0.2307199,0.336062 0.6721651,1.101981 0.4997848,0.867155 0.6142589,1.079781 0.6132682,1.139079 -8.055e-4,0.05701 -0.1331231,0.301074 -0.606335,1.119633 z"
         id="path13576" />
      <path
         style="fill:none;stroke:#ff0000;stroke-width:0.444;stroke-dasharray:none;stroke-opacity:1"
         d="m 5.8536815,64.44583 c -0.4414452,0.765918 -0.6307421,1.076254 -0.6721642,1.101982 -0.05323,0.03302 -0.1538914,0.03583 -1.2961993,0.03591 -1.1032458,0 -1.2446631,-0.0032 -1.2946293,-0.03302 -0.076578,-0.04526 -1.2945567,-2.150768 -1.2945567,-2.237944 0,-0.06845 1.2005685,-2.168331 1.2742887,-2.228805 0.040664,-0.03333 0.1345896,-0.03592 1.3128596,-0.03592 h 1.2690708 l 0.051615,0.04614 c 0.028349,0.02537 0.3244267,0.519434 0.6579112,1.09786 0.4609161,0.799466 0.6063279,1.067975 0.6063279,1.119632 0,0.0517 -0.147248,0.323436 -0.614493,1.134128 z"
         id="path13574" />
      <path
         style="fill:none;stroke:#ff0000;stroke-width:0.444;stroke-dasharray:none;stroke-opacity:1"
         d="M 5.8631191,69.902849 C 5.5308012,70.477836 5.2352356,70.971944 5.206311,71.000875 l -0.052585,0.05259 H 3.8934726 c -1.2282607,0 -1.2616457,-8.05e-4 -1.3151624,-0.04107 -0.032854,-0.02456 -0.2988601,-0.461736 -0.6618895,-1.087777 -0.550629,-0.949547 -0.6069798,-1.055292 -0.6069798,-1.139078 0,-0.08379 0.056364,-0.189531 0.6069798,-1.139079 0.3630294,-0.62604 0.6290512,-1.063226 0.6618895,-1.08777 0.053549,-0.04001 0.086901,-0.04107 1.3152351,-0.04107 h 1.2603254 l 0.059187,0.0616 c 0.032527,0.0339 0.3282833,0.528741 0.6571622,1.099733 0.4679216,0.812399 0.5978646,1.05341 0.5975341,1.108296 -3.778e-4,0.05419 -0.1381402,0.30841 -0.6046361,1.115573 z"
         id="path13572" />
      <path
         style="fill:none;stroke:#ff0000;stroke-width:0.444;stroke-dasharray:none;stroke-opacity:1"
         d="m 5.8606146,75.384041 c -0.332809,0.5757 -0.6283103,1.067502 -0.6566791,1.092898 l -0.051615,0.04619 H 3.8832509 c -1.1782709,0 -1.2722028,-0.0024 -1.3128596,-0.0359 -0.073762,-0.06047 -1.2742886,-2.160333 -1.2742886,-2.228812 0,-0.08717 1.2179532,-2.192689 1.2945566,-2.237935 0.049925,-0.02956 0.1913827,-0.0331 1.2946284,-0.03302 1.1423089,0 1.2430131,0.0032 1.2961993,0.03591 0.041389,0.02569 0.2307199,0.336056 0.6721651,1.101974 0.4997848,0.867164 0.6142589,1.079782 0.6132682,1.139087 -8.055e-4,0.05701 -0.1331231,0.301071 -0.606335,1.119638 z"
         id="path13570" />
      <path
         style="fill:none;stroke:#ff0000;stroke-width:0.444;stroke-dasharray:none;stroke-opacity:1"
         d="m 5.8536815,80.865007 c -0.4414452,0.765919 -0.6307421,1.076267 -0.6721642,1.10198 -0.05323,0.03305 -0.1538914,0.03583 -1.2961993,0.03591 -1.1032458,0 -1.2446631,-0.0033 -1.2946293,-0.03305 -0.076578,-0.04529 -1.2945567,-2.150762 -1.2945567,-2.237948 0,-0.06846 1.2005685,-2.16832 1.2742887,-2.228796 0.040664,-0.03338 0.1345896,-0.0359 1.3128596,-0.0359 h 1.2690708 l 0.051615,0.0461 c 0.028349,0.02538 0.3244267,0.519447 0.6579112,1.097861 0.4609161,0.799462 0.6063279,1.067969 0.6063279,1.119633 0,0.05166 -0.147248,0.323435 -0.614493,1.134114 z"
         id="path13568" />
      <path
         style="fill:none;stroke:#ff0000;stroke-width:0.444;stroke-dasharray:none;stroke-opacity:1"
         d="M 5.8631191,86.32202 C 5.5308012,86.897013 5.2352356,87.391134 5.206311,87.420065 l -0.052585,0.05257 H 3.8934726 c -1.2282607,0 -1.2616457,-8.11e-4 -1.3151624,-0.04105 -0.032854,-0.02458 -0.2988601,-0.461734 -0.6618895,-1.08777 -0.550629,-0.949557 -0.6069798,-1.055296 -0.6069798,-1.139076 0,-0.0838 0.056364,-0.189527 0.6069798,-1.139094 0.3630294,-0.626035 0.6290512,-1.063208 0.6618895,-1.087763 0.053549,-0.03998 0.086901,-0.04105 1.3152351,-0.04105 h 1.2603254 l 0.059187,0.06161 c 0.032527,0.03395 0.3282833,0.52874 0.6571622,1.099728 0.4679216,0.812397 0.5978646,1.05342 0.5975341,1.108295 -3.778e-4,0.05419 -0.1381402,0.308417 -0.6046361,1.115573 z"
         id="path13566" />
      <path
         style="fill:none;stroke:#ff0000;stroke-width:0.444;stroke-dasharray:none;stroke-opacity:1"
         d="m 10.60258,12.436972 c -0.332882,0.575697 -0.6283259,1.069813 -0.6565339,1.098029 l -0.0513,0.0513 h -1.260253 c -1.2318017,0 -1.2614999,-8.05e-4 -1.3157005,-0.04139 C 7.2852156,13.519861 7.0241477,13.090975 6.6566325,12.45714 6.1062778,11.507946 6.049927,11.402192 6.049927,11.318407 c 0,-0.08378 0.056364,-0.189539 0.6067055,-1.138725 0.3675152,-0.6338429 0.6285681,-1.0627019 0.6621637,-1.0877769 0.054194,-0.04051 0.083899,-0.04139 1.3157739,-0.04139 h 1.260325 l 0.05886,0.0616 c 0.03238,0.0339 0.3280819,0.529225 0.6571549,1.1007899 0.465689,0.808838 0.598169,1.054519 0.59763,1.108294 -5.64e-4,0.0525 -0.145983,0.320352 -0.605941,1.115808 z"
         id="path13556" />
      <path
         style="fill:none;stroke:#ff0000;stroke-width:0.444;stroke-dasharray:none;stroke-opacity:1"
         d="m 11.134519,16.983032 c -0.345058,0.620184 -1.1493379,1.989912 -1.1900679,2.026744 l -0.05105,0.04614 H 8.6232041 7.3530073 l -0.050815,-0.04614 c -0.084181,-0.07649 -1.26502,-2.14787 -1.26502,-2.219014 0,-0.08941 1.2150547,-2.190507 1.2935904,-2.236897 0.051214,-0.03028 0.1833626,-0.03375 1.2894984,-0.03375 0.914253,0 1.246378,0.0065 1.286447,0.02464 0.06079,0.0277 0.04775,0.0065 0.7875639,1.288582 0.364069,0.63096 0.514868,0.910589 0.514707,0.954364 -1.29e-4,0.03406 -0.03366,0.121946 -0.07448,0.19532 z"
         id="path13554" />
      <path
         style="fill:none;stroke:#ff0000;stroke-width:0.444;stroke-dasharray:none;stroke-opacity:1"
         d="m 10.694273,23.22267 c -0.7398049,1.28218 -0.7268009,1.260897 -0.7875639,1.288582 -0.04011,0.01828 -0.372194,0.02464 -1.286447,0.02464 -1.1061359,0 -1.2382847,-0.0032 -1.2894986,-0.03375 -0.078511,-0.04638 -1.2935905,-2.147484 -1.2935905,-2.236899 0,-0.0711 1.1808399,-2.142505 1.2650201,-2.219013 l 0.050815,-0.04614 h 1.270197 1.270197 l 0.05113,0.04614 c 0.0281,0.02537 0.3090859,0.494116 0.6243819,1.041588 0.663144,1.151472 0.640333,1.109261 0.640333,1.184584 0,0.03816 -0.175174,0.361404 -0.514941,0.950257 z"
         id="path13552" />
      <path
         style="fill:none;stroke:#ff0000;stroke-width:0.444;stroke-dasharray:none;stroke-opacity:1"
         d="m 10.60258,28.856159 c -0.332882,0.575696 -0.6283259,1.069811 -0.6565339,1.098035 l -0.0513,0.0513 h -1.260253 c -1.2318017,0 -1.2614999,-8.05e-4 -1.3157005,-0.04139 C 7.2852156,29.939054 7.0241477,29.510163 6.6566325,28.87632 6.1062778,27.927135 6.049927,27.821374 6.049927,27.737595 c 0,-0.08379 0.056364,-0.189539 0.6067055,-1.138733 0.3675152,-0.633842 0.6285681,-1.062693 0.6621637,-1.08777 0.054194,-0.0405 0.083899,-0.04139 1.3157739,-0.04139 h 1.260325 l 0.05886,0.0616 c 0.03238,0.0339 0.3280819,0.529217 0.6571549,1.100782 0.465689,0.808847 0.598169,1.054528 0.59763,1.108295 -5.64e-4,0.0525 -0.145983,0.32035 -0.605941,1.115807 z"
         id="path13550" />
      <path
         style="fill:none;stroke:#ff0000;stroke-width:0.444;stroke-dasharray:none;stroke-opacity:1"
         d="m 11.134519,33.402225 c -0.345058,0.620178 -1.1493379,1.989913 -1.1900679,2.026745 l -0.05105,0.04614 H 8.6232041 7.3530073 l -0.050815,-0.04614 c -0.084181,-0.07649 -1.26502,-2.147878 -1.26502,-2.219022 0,-0.08941 1.2150547,-2.190499 1.2935904,-2.236896 0.051214,-0.03027 0.1833626,-0.03375 1.2894984,-0.03375 0.914254,0 1.246378,0.0065 1.286447,0.02464 0.06079,0.0277 0.04775,0.0065 0.7875639,1.288582 0.364069,0.630968 0.514869,0.91059 0.514707,0.954372 -1.29e-4,0.03406 -0.03366,0.121946 -0.07448,0.19532 z"
         id="path13548" />
      <path
         style="fill:none;stroke:#ff0000;stroke-width:0.444;stroke-dasharray:none;stroke-opacity:1"
         d="m 10.694273,39.641857 c -0.7398049,1.282179 -0.7268009,1.260897 -0.7875639,1.288582 -0.04011,0.01828 -0.372194,0.02463 -1.286447,0.02463 -1.1061359,0 -1.2382847,-0.0032 -1.2894986,-0.03374 -0.078511,-0.04638 -1.2935905,-2.147484 -1.2935905,-2.236898 0,-0.07118 1.1808399,-2.142499 1.2650201,-2.219013 l 0.050815,-0.04614 h 1.270197 1.270197 l 0.05113,0.04614 c 0.0281,0.02537 0.3090859,0.494116 0.6243819,1.041587 0.663144,1.151472 0.640333,1.109261 0.640333,1.184592 0,0.03816 -0.175174,0.361395 -0.514941,0.950249 z"
         id="path13546" />
      <path
         style="fill:none;stroke:#ff0000;stroke-width:0.444;stroke-dasharray:none;stroke-opacity:1"
         d="m 10.60258,45.275345 c -0.332882,0.575705 -0.6283259,1.069821 -0.6565339,1.098037 l -0.0513,0.0513 h -1.260253 c -1.2318017,0 -1.2614999,-8.04e-4 -1.3157005,-0.04139 C 7.2852156,46.358242 7.0241477,45.929351 6.6566325,45.295516 6.1062778,44.346323 6.049927,44.240569 6.049927,44.156783 c 0,-0.08378 0.056364,-0.189539 0.6067055,-1.138733 0.3675152,-0.633834 0.6285681,-1.062693 0.6621637,-1.087769 0.054194,-0.0405 0.083899,-0.04139 1.3157739,-0.04139 h 1.260325 l 0.05886,0.0616 c 0.03238,0.0339 0.3280819,0.529217 0.6571549,1.100783 0.465689,0.808846 0.598169,1.054528 0.59763,1.108303 -5.64e-4,0.0525 -0.145983,0.320343 -0.605941,1.115799 z"
         id="path13544" />
      <path
         style="fill:none;stroke:#ff0000;stroke-width:0.444;stroke-dasharray:none;stroke-opacity:1"
         d="m 11.134519,49.821412 c -0.345058,0.620177 -1.1493379,1.989912 -1.1900679,2.026744 l -0.05105,0.04614 H 8.6232041 7.3530073 l -0.050815,-0.04614 c -0.084181,-0.07649 -1.26502,-2.14787 -1.26502,-2.219013 0,-0.08941 1.2150547,-2.190508 1.2935904,-2.236898 0.051214,-0.03027 0.1833626,-0.03375 1.2894984,-0.03375 0.914254,0 1.246378,0.0065 1.286447,0.02464 0.06079,0.02771 0.04775,0.0065 0.7875639,1.288582 0.364069,0.630961 0.514869,0.91059 0.514707,0.954364 -1.29e-4,0.03406 -0.03366,0.121947 -0.07448,0.19532 z"
         id="path13542" />
      <path
         style="fill:none;stroke:#ff0000;stroke-width:0.444;stroke-dasharray:none;stroke-opacity:1"
         d="m 10.694273,56.06105 c -0.7398049,1.282172 -0.7268009,1.260898 -0.7875639,1.288582 -0.04011,0.01828 -0.372194,0.02464 -1.286447,0.02464 -1.1061359,0 -1.2382847,-0.0032 -1.2894986,-0.03375 -0.078511,-0.04638 -1.2935905,-2.147483 -1.2935905,-2.236897 0,-0.07119 1.1808399,-2.142507 1.2650201,-2.219021 l 0.050815,-0.04614 h 1.270197 1.270197 l 0.05113,0.04614 c 0.0281,0.02544 0.3090859,0.494115 0.6243819,1.041595 0.663144,1.151473 0.640333,1.109261 0.640333,1.184584 0,0.03816 -0.175174,0.361396 -0.514941,0.950257 z"
         id="path13540" />
      <path
         style="fill:none;stroke:#ff0000;stroke-width:0.444;stroke-dasharray:none;stroke-opacity:1"
         d="m 10.60258,61.69454 c -0.332882,0.575695 -0.6283259,1.069811 -0.6565339,1.098035 l -0.0513,0.0513 h -1.260253 c -1.2318017,0 -1.2614999,-8.05e-4 -1.3157005,-0.04139 C 7.2852156,62.777435 7.0241477,62.348548 6.6566325,61.714715 6.1062778,60.765521 6.049927,60.659767 6.049927,60.575982 c 0,-0.08378 0.056364,-0.189539 0.6067055,-1.138726 0.3675152,-0.633842 0.6285681,-1.062692 0.6621637,-1.087777 0.054194,-0.0405 0.083899,-0.04139 1.3157739,-0.04139 h 1.260325 l 0.05886,0.0616 c 0.03238,0.0339 0.3280819,0.529217 0.6571549,1.100782 0.465689,0.808846 0.598169,1.05452 0.59763,1.108294 -5.64e-4,0.0525 -0.145983,0.320351 -0.605941,1.115808 z"
         id="path13538" />
      <path
         style="fill:none;stroke:#ff0000;stroke-width:0.444;stroke-dasharray:none;stroke-opacity:1"
         d="M 11.134519,66.240598 C 10.789461,66.860784 9.9851811,68.23051 9.9444511,68.26735 l -0.05105,0.04614 H 8.6232041 7.3530073 l -0.050815,-0.04614 c -0.084181,-0.07649 -1.26502,-2.147878 -1.26502,-2.219022 0,-0.08941 1.2150547,-2.190506 1.2935904,-2.236896 0.051214,-0.03028 0.1833626,-0.03375 1.2894984,-0.03375 0.914254,0 1.246378,0.0065 1.286447,0.02465 0.06079,0.02771 0.04775,0.0065 0.7875639,1.288582 0.364069,0.630968 0.514869,0.910589 0.514707,0.954363 -1.29e-4,0.03406 -0.03366,0.121955 -0.07448,0.19532 z"
         id="path13536" />
      <path
         style="fill:none;stroke:#ff0000;stroke-width:0.444;stroke-dasharray:none;stroke-opacity:1"
         d="m 10.694273,72.480237 c -0.7398049,1.28218 -0.7268009,1.260898 -0.7875639,1.288582 -0.04011,0.01828 -0.372194,0.02464 -1.286447,0.02464 -1.1061359,0 -1.2382847,-0.0032 -1.2894986,-0.03375 -0.078511,-0.04638 -1.2935905,-2.147483 -1.2935905,-2.236897 0,-0.0711 1.1808399,-2.142507 1.2650201,-2.219014 l 0.050815,-0.04622 h 1.270197 1.270197 l 0.05113,0.04622 c 0.0281,0.02537 0.3090859,0.494117 0.6243819,1.041588 0.663144,1.151473 0.640333,1.109261 0.640333,1.184584 0,0.03816 -0.175174,0.361404 -0.514941,0.950257 z"
         id="path13534" />
      <path
         style="fill:none;stroke:#ff0000;stroke-width:0.444;stroke-dasharray:none;stroke-opacity:1"
         d="m 10.60258,78.113731 c -0.332882,0.575698 -0.6283259,1.069807 -0.6565339,1.098032 l -0.0513,0.05125 h -1.260253 c -1.2318017,0 -1.2614999,-7.99e-4 -1.3157005,-0.04138 C 7.2852156,79.196583 7.0241477,78.767708 6.6566325,78.133878 6.1062778,77.18468 6.049927,77.078921 6.049927,76.995138 c 0,-0.08378 0.056364,-0.189541 0.6067055,-1.138734 0.3675152,-0.633835 0.6285681,-1.062691 0.6621637,-1.087767 0.054194,-0.04051 0.083899,-0.04139 1.3157739,-0.04139 h 1.260325 l 0.05886,0.0616 c 0.03238,0.0339 0.3280819,0.52922 0.6571549,1.100783 0.465689,0.808843 0.598169,1.054527 0.59763,1.108296 -5.64e-4,0.05247 -0.145983,0.320345 -0.605941,1.115809 z"
         id="path13532" />
      <path
         style="fill:none;stroke:#ff0000;stroke-width:0.444;stroke-dasharray:none;stroke-opacity:1"
         d="m 11.134519,82.659781 c -0.345058,0.620183 -1.1493379,1.989912 -1.1900679,2.026754 l -0.05105,0.04617 H 8.6232041 7.3530073 l -0.050815,-0.04617 c -0.084181,-0.07646 -1.26502,-2.147878 -1.26502,-2.219028 0,-0.0894 1.2150547,-2.190498 1.2935904,-2.236898 0.051214,-0.03028 0.1833626,-0.0337 1.2894984,-0.0337 0.914254,0 1.246378,0.0065 1.286447,0.02464 0.06079,0.02767 0.04775,0.0065 0.7875639,1.288585 0.364069,0.630963 0.514869,0.910588 0.514707,0.954368 -1.29e-4,0.03403 -0.03366,0.121948 -0.07448,0.195319 z"
         id="path13530" />
      <path
         style="fill:none;stroke:#ff0000;stroke-width:0.444;stroke-dasharray:none;stroke-opacity:1"
         d="m 15.915395,8.7016061 c -0.207689,0.384997 -1.191678,2.0636879 -1.230105,2.0985789 l -0.05089,0.04614 h -1.2702 -1.270197 l -0.05081,-0.04614 c -0.04075,-0.03712 -1.09802,-1.8428419 -1.233277,-2.1064219 -0.01957,-0.03816 -0.0322,-0.09821 -0.02802,-0.133407 0.004,-0.03624 0.274291,-0.5253597 0.622729,-1.1282064 0.461537,-0.7985243 0.628955,-1.0713827 0.67057,-1.0929065 0.08258,-0.042679 2.495673,-0.042516 2.578267,2.088e-4 0.07626,0.039456 1.297117,2.1500021 1.295885,2.2402551 -3.71e-4,0.03318 -0.01578,0.08805 -0.03406,0.121915 z"
         id="path13516" />
      <path
         style="fill:none;stroke:#ff0000;stroke-width:0.444;stroke-dasharray:none;stroke-opacity:1"
         d="m 15.329159,15.194133 c -0.426677,0.738533 -0.636637,1.083026 -0.671915,1.102441 -0.07666,0.0422 -2.500488,0.04316 -2.581962,8.05e-4 -0.04163,-0.0215 -0.209035,-0.294374 -0.670571,-1.092898 -0.348438,-0.60285 -0.618406,-1.091965 -0.62273,-1.128209 -0.004,-0.03518 0.0084,-0.09524 0.02802,-0.133414 0.135258,-0.263581 1.1925,-2.069335 1.233278,-2.106416 l 0.05082,-0.04614 h 1.270197 1.270198 l 0.05089,0.04614 c 0.02794,0.02537 0.308757,0.494117 0.623963,1.04159 0.668669,1.161424 0.641073,1.110419 0.640752,1.184245 -1.62e-4,0.03768 -0.213834,0.42716 -0.620846,1.131655 z"
         id="path13514" />
      <path
         style="fill:none;stroke:#ff0000;stroke-width:0.444;stroke-dasharray:none;stroke-opacity:1"
         d="m 15.337485,20.655468 c -0.38114,0.658814 -0.632055,1.071568 -0.667502,1.098036 -0.05597,0.04179 -0.07545,0.04243 -1.30575,0.04243 -1.229484,0 -1.249841,-6.52e-4 -1.305644,-0.04235 -0.03527,-0.02633 -0.287281,-0.440809 -0.667615,-1.098028 -0.483431,-0.835396 -0.610925,-1.070706 -0.610925,-1.127549 0,-0.05686 0.127494,-0.292151 0.610925,-1.127548 0.380334,-0.657218 0.632329,-1.07168 0.667615,-1.098027 0.0558,-0.04163 0.07617,-0.04236 1.305644,-0.04236 1.230282,0 1.249802,6.37e-4 1.30575,0.04244 0.03544,0.0265 0.286362,0.439223 0.667502,1.098037 0.483196,0.835218 0.610707,1.070625 0.610707,1.127459 0,0.05686 -0.127511,0.29224 -0.610707,1.12746 z"
         id="path13512" />
      <path
         style="fill:none;stroke:#ff0000;stroke-width:0.444;stroke-dasharray:none;stroke-opacity:1"
         d="m 15.915395,25.120792 c -0.207689,0.384997 -1.191678,2.063697 -1.230105,2.09858 l -0.05089,0.04622 h -1.2702 -1.270197 l -0.05081,-0.04622 c -0.04075,-0.03703 -1.09802,-1.842834 -1.233277,-2.106422 -0.01957,-0.03816 -0.0322,-0.09821 -0.02802,-0.133406 0.004,-0.03624 0.274291,-0.52536 0.622729,-1.128209 0.461537,-0.798524 0.628955,-1.071374 0.67057,-1.092898 0.08258,-0.04268 2.495673,-0.04252 2.578267,1.85e-4 0.07626,0.03945 1.297117,2.150003 1.295885,2.240263 -3.71e-4,0.03317 -0.01578,0.08804 -0.03406,0.121907 z"
         id="path13510" />
      <path
         style="fill:none;stroke:#ff0000;stroke-width:0.444;stroke-dasharray:none;stroke-opacity:1"
         d="m 15.329159,31.613328 c -0.426677,0.738533 -0.636637,1.083018 -0.671915,1.102432 -0.07666,0.04219 -2.500488,0.04316 -2.581962,8.05e-4 -0.04163,-0.0215 -0.209035,-0.294374 -0.670571,-1.092898 -0.348438,-0.602849 -0.618406,-1.091965 -0.62273,-1.128208 -0.004,-0.03518 0.0084,-0.09523 0.02802,-0.133406 0.135258,-0.26359 1.1925,-2.069342 1.233278,-2.106424 l 0.05082,-0.04614 h 1.270197 1.270198 l 0.05089,0.04614 c 0.02794,0.02537 0.308757,0.494117 0.623963,1.041588 0.668669,1.161426 0.641073,1.110421 0.640752,1.184247 -1.62e-4,0.03768 -0.213834,0.427159 -0.620846,1.131661 z"
         id="path13508" />
      <path
         style="fill:none;stroke:#ff0000;stroke-width:0.444;stroke-dasharray:none;stroke-opacity:1"
         d="m 15.337485,37.074654 c -0.38114,0.658822 -0.632055,1.071568 -0.667502,1.098036 -0.05597,0.04179 -0.07545,0.04244 -1.30575,0.04244 -1.229484,0 -1.249841,-7.42e-4 -1.305644,-0.04228 -0.03527,-0.02633 -0.287281,-0.440818 -0.667615,-1.098036 -0.483431,-0.835396 -0.610925,-1.070707 -0.610925,-1.127549 0,-0.05686 0.127494,-0.292143 0.610925,-1.127539 0.380334,-0.657228 0.632329,-1.071688 0.667615,-1.098037 0.0558,-0.04164 0.07617,-0.04235 1.305644,-0.04235 1.230282,0 1.249802,5.64e-4 1.30575,0.04243 0.03544,0.0265 0.286362,0.439214 0.667502,1.098028 0.483196,0.835219 0.610707,1.070626 0.610707,1.12746 0,0.05686 -0.127511,0.292241 -0.610707,1.127459 z"
         id="path13506" />
      <path
         style="fill:none;stroke:#ff0000;stroke-width:0.444;stroke-dasharray:none;stroke-opacity:1"
         d="m 15.915395,41.539987 c -0.207689,0.384989 -1.191678,2.063689 -1.230105,2.098572 l -0.05089,0.04614 h -1.2702 -1.270197 l -0.05081,-0.04614 c -0.04075,-0.03704 -1.09802,-1.842834 -1.233277,-2.106416 -0.01957,-0.03816 -0.0322,-0.09821 -0.02802,-0.133405 0.004,-0.03624 0.274291,-0.52536 0.622729,-1.128209 0.461537,-0.798523 0.628955,-1.071382 0.67057,-1.092905 0.08258,-0.04268 2.495673,-0.04252 2.578267,1.85e-4 0.07626,0.03946 1.297117,2.150003 1.295885,2.240263 -3.71e-4,0.03318 -0.01578,0.08805 -0.03406,0.121906 z"
         id="path13504" />
      <path
         style="fill:none;stroke:#ff0000;stroke-width:0.444;stroke-dasharray:none;stroke-opacity:1"
         d="m 15.329159,48.032514 c -0.426677,0.738533 -0.636637,1.083026 -0.671915,1.102441 -0.07666,0.04219 -2.500488,0.04316 -2.581962,8.05e-4 -0.04163,-0.0215 -0.209035,-0.294383 -0.670571,-1.092907 -0.348438,-0.602849 -0.618406,-1.091963 -0.62273,-1.128208 -0.004,-0.03518 0.0084,-0.09523 0.02802,-0.133406 0.135258,-0.26359 1.1925,-2.069341 1.233278,-2.106424 l 0.05082,-0.04614 h 1.270197 1.270198 l 0.05089,0.04614 c 0.02794,0.02537 0.308757,0.494117 0.623963,1.041598 0.668669,1.161416 0.641073,1.110412 0.640752,1.184237 -1.62e-4,0.03768 -0.213834,0.427159 -0.620846,1.131663 z"
         id="path13502" />
      <path
         style="fill:none;stroke:#ff0000;stroke-width:0.444;stroke-dasharray:none;stroke-opacity:1"
         d="m 15.337485,53.493849 c -0.38114,0.658814 -0.632055,1.071568 -0.667502,1.098035 -0.05597,0.04179 -0.07545,0.04243 -1.30575,0.04243 -1.229484,0 -1.249841,-7.48e-4 -1.305644,-0.04235 -0.03527,-0.02633 -0.287281,-0.44081 -0.667615,-1.098037 -0.483431,-0.835387 -0.610925,-1.070697 -0.610925,-1.127539 0,-0.05686 0.127494,-0.292153 0.610925,-1.127549 0.380334,-0.657218 0.632329,-1.071688 0.667615,-1.098035 0.0558,-0.04164 0.07617,-0.04228 1.305644,-0.04228 1.230282,0 1.249802,5.55e-4 1.30575,0.04243 0.03544,0.0265 0.286362,0.439213 0.667502,1.098036 0.483196,0.835219 0.610707,1.070624 0.610707,1.127459 0,0.05686 -0.127511,0.292239 -0.610707,1.127459 z"
         id="path13500" />
      <path
         style="fill:none;stroke:#ff0000;stroke-width:0.444;stroke-dasharray:none;stroke-opacity:1"
         d="m 15.915395,57.959173 c -0.207689,0.384996 -1.191678,2.063688 -1.230105,2.098579 l -0.05089,0.04614 h -1.2702 -1.270197 l -0.05081,-0.04614 c -0.04075,-0.03712 -1.09802,-1.842833 -1.233277,-2.106422 -0.01957,-0.03816 -0.0322,-0.09821 -0.02802,-0.133406 0.004,-0.03623 0.274291,-0.52536 0.622729,-1.128207 0.461537,-0.798525 0.628955,-1.071383 0.67057,-1.0929 0.08258,-0.04268 2.495673,-0.04252 2.578267,1.86e-4 0.07626,0.03945 1.297117,2.150003 1.295885,2.240256 -3.71e-4,0.03317 -0.01578,0.08805 -0.03406,0.121906 z"
         id="path13498" />
      <path
         style="fill:none;stroke:#ff0000;stroke-width:0.444;stroke-dasharray:none;stroke-opacity:1"
         d="m 15.329159,64.451709 c -0.426677,0.738524 -0.636637,1.083017 -0.671915,1.102431 -0.07666,0.0422 -2.500488,0.04316 -2.581962,8.06e-4 -0.04163,-0.0215 -0.209035,-0.294374 -0.670571,-1.092898 -0.348438,-0.602849 -0.618406,-1.091966 -0.62273,-1.128217 -0.004,-0.03518 0.0084,-0.09523 0.02802,-0.133405 0.135258,-0.263583 1.1925,-2.069343 1.233278,-2.106416 l 0.05082,-0.04614 h 1.270197 1.270198 l 0.05089,0.04614 c 0.02794,0.02537 0.308757,0.494117 0.623963,1.041588 0.668669,1.161425 0.641073,1.11042 0.640752,1.184246 -1.62e-4,0.03768 -0.213834,0.42716 -0.620846,1.131655 z"
         id="path13496" />
      <path
         style="fill:none;stroke:#ff0000;stroke-width:0.444;stroke-dasharray:none;stroke-opacity:1"
         d="m 15.337485,69.913035 c -0.38114,0.658821 -0.632055,1.071568 -0.667502,1.098036 -0.05597,0.04179 -0.07545,0.04243 -1.30575,0.04243 -1.229484,0 -1.249841,-7.42e-4 -1.305644,-0.04235 -0.03527,-0.02633 -0.287281,-0.440808 -0.667615,-1.098028 -0.483431,-0.835396 -0.610925,-1.070706 -0.610925,-1.127548 0,-0.05686 0.127494,-0.292152 0.610925,-1.12754 0.380334,-0.657227 0.632329,-1.071688 0.667615,-1.098036 0.0558,-0.04164 0.07617,-0.04235 1.305644,-0.04235 1.230282,0 1.249802,5.56e-4 1.30575,0.04243 0.03544,0.0265 0.286362,0.439223 0.667502,1.098037 0.483196,0.835218 0.610707,1.070624 0.610707,1.127459 0,0.05686 -0.127511,0.29224 -0.610707,1.12746 z"
         id="path13494" />
      <path
         style="fill:none;stroke:#ff0000;stroke-width:0.444;stroke-dasharray:none;stroke-opacity:1"
         d="m 15.915395,74.378359 c -0.207689,0.384997 -1.191678,2.063702 -1.230105,2.09858 l -0.05089,0.04619 h -1.2702 -1.270197 l -0.05081,-0.04619 c -0.04075,-0.03713 -1.09802,-1.842834 -1.233277,-2.106415 -0.01957,-0.03816 -0.0322,-0.09821 -0.02802,-0.133412 0.004,-0.03624 0.274291,-0.525361 0.622729,-1.128209 0.461537,-0.798516 0.628955,-1.071376 0.67057,-1.092898 0.08258,-0.04268 2.495673,-0.04252 2.578267,1.85e-4 0.07626,0.03945 1.297117,2.150002 1.295885,2.240262 -3.71e-4,0.03318 -0.01578,0.08805 -0.03406,0.121907 z"
         id="path13492" />
      <path
         style="fill:none;stroke:#ff0000;stroke-width:0.444;stroke-dasharray:none;stroke-opacity:1"
         d="m 15.329159,80.87089 c -0.426677,0.738533 -0.636637,1.083017 -0.671915,1.102438 -0.07666,0.04219 -2.500488,0.04317 -2.581962,8.09e-4 -0.04163,-0.02147 -0.209035,-0.294379 -0.670571,-1.092898 -0.348438,-0.602851 -0.618406,-1.091967 -0.62273,-1.128206 -0.004,-0.03517 0.0084,-0.09523 0.02802,-0.133408 0.135258,-0.263586 1.1925,-2.069342 1.233278,-2.106422 l 0.05082,-0.04619 h 1.270197 1.270198 l 0.05089,0.04619 c 0.02794,0.02538 0.308757,0.494125 0.623963,1.041604 0.668669,1.161405 0.641073,1.110402 0.640752,1.18423 -1.62e-4,0.0377 -0.213834,0.427154 -0.620846,1.131649 z"
         id="path13490" />
      <path
         style="fill:none;stroke:#ff0000;stroke-width:0.444;stroke-dasharray:none;stroke-opacity:1"
         d="m 15.337485,86.332228 c -0.38114,0.658806 -0.632055,1.071562 -0.667502,1.098018 -0.05597,0.04182 -0.07545,0.04242 -1.30575,0.04242 -1.229484,0 -1.249841,-7.51e-4 -1.305644,-0.04233 -0.03527,-0.02637 -0.287281,-0.440809 -0.667615,-1.098036 -0.483431,-0.835396 -0.610925,-1.07071 -0.610925,-1.127539 0,-0.05684 0.127494,-0.29216 0.610925,-1.127555 0.380334,-0.657222 0.632329,-1.071681 0.667615,-1.098031 0.0558,-0.04162 0.07617,-0.04235 1.305644,-0.04235 1.230282,0 1.249802,5.63e-4 1.30575,0.04243 0.03544,0.02652 0.286362,0.439209 0.667502,1.098021 0.483196,0.835225 0.610707,1.070624 0.610707,1.127471 0,0.05684 -0.127511,0.292245 -0.610707,1.127461 z"
         id="path13488" />
      <circle
         style="fill:none;fill-opacity:1;stroke:#ff0000;stroke-width:0.444;stroke-linejoin:round;stroke-dasharray:none;stroke-opacity:1"
         id="path19416"
         cx="3.9167478"
         cy="96.663551"
         r="2" />
      <circle
         style="fill:none;fill-opacity:1;stroke:#ff0000;stroke-width:0.444;stroke-linejoin:round;stroke-dasharray:none;stroke-opacity:1"
         id="path19416-6"
         cx="13.916748"
         cy="96.66375"
         r="2" />
      <path
         style="fill:none;stroke:#0000ff;stroke-width:0.444;stroke-linejoin:round"
         id="rect234-8"
         width="19.692114"
         height="101.74065"
         x="19.481754"
         y="-1.3440856"
         sodipodi:type="rect"
         inkscape:path-effect="#path-effect1206"
         d="m 28.034379,-1.3440856 h 2.987769 a 8.1517206,8.1517206 45 0 1 8.15172,8.1517206 V 100.39656 H 19.481754 V 7.2085393 a 8.5526249,8.5526249 135 0 1 8.552625,-8.5526249 z" />
      <circle
         style="fill:none;stroke:#ff0000;stroke-width:0.444;stroke-linejoin:round;stroke-opacity:1"
         id="path292-1"
         cx="29.549812"
         cy="3.4323065"
         r="1" />
      <path
         style="fill:none;stroke:#ff0000;stroke-width:0.444;stroke-dasharray:none;stroke-opacity:1"
         d="m 26.425676,9.4465031 c -0.332809,0.5756959 -0.62831,1.0675009 -0.656679,1.0929059 l -0.05162,0.04614 h -1.269069 c -1.178271,0 -1.272203,-0.0024 -1.31286,-0.03591 -0.07376,-0.06047 -1.274288,-2.1603339 -1.274288,-2.2288039 0,-0.08718 1.217953,-2.1926894 1.294556,-2.2379444 0.04993,-0.02955 0.191383,-0.0331 1.294629,-0.03302 1.142308,0 1.243013,0.0032 1.296199,0.03591 0.04139,0.02569 0.23072,0.336062 0.672165,1.101981 0.499785,0.867154 0.614259,1.0797814 0.613268,1.1390794 -8.05e-4,0.05701 -0.133123,0.301074 -0.606335,1.119632 z"
         id="path13594-0" />
      <path
         style="fill:none;stroke:#ff0000;stroke-width:0.444;stroke-dasharray:none;stroke-opacity:1"
         d="m 26.418743,14.927487 c -0.441445,0.76592 -0.630742,1.076253 -0.672164,1.101981 -0.05323,0.03302 -0.153891,0.03583 -1.296199,0.03591 -1.103246,0 -1.244663,-0.0032 -1.294629,-0.03302 -0.07658,-0.04525 -1.294557,-2.15076 -1.294557,-2.237936 0,-0.06845 1.200568,-2.16834 1.274289,-2.228805 0.04066,-0.03333 0.134589,-0.03591 1.312859,-0.03591 h 1.269071 l 0.05162,0.04614 c 0.02835,0.02537 0.324427,0.519435 0.657911,1.09786 0.460916,0.799466 0.606328,1.067976 0.606328,1.119633 0,0.0517 -0.147248,0.323436 -0.614493,1.134128 z"
         id="path13592-9" />
      <path
         style="fill:none;stroke:#ff0000;stroke-width:0.444;stroke-dasharray:none;stroke-opacity:1"
         d="m 26.428181,20.384498 c -0.332318,0.574987 -0.627884,1.069103 -0.656808,1.098035 l -0.05259,0.05259 h -1.260254 c -1.22826,0 -1.261645,-8.05e-4 -1.315162,-0.04107 -0.03285,-0.02456 -0.29886,-0.461737 -0.661889,-1.087777 -0.550629,-0.949547 -0.60698,-1.055292 -0.60698,-1.139078 0,-0.08379 0.05636,-0.189531 0.60698,-1.13908 0.363029,-0.62604 0.629051,-1.063224 0.661889,-1.087777 0.05355,-0.04002 0.0869,-0.04107 1.315235,-0.04107 h 1.260326 l 0.05919,0.0616 c 0.03253,0.0339 0.328283,0.528743 0.657162,1.099735 0.467921,0.812399 0.597864,1.05341 0.597534,1.108295 -3.78e-4,0.05411 -0.13814,0.30841 -0.604636,1.115567 z"
         id="path13590-5" />
      <path
         style="fill:none;stroke:#ff0000;stroke-width:0.444;stroke-dasharray:none;stroke-opacity:1"
         d="m 26.425676,25.865698 c -0.332809,0.575696 -0.62831,1.067501 -0.656679,1.092898 l -0.05162,0.04622 h -1.269069 c -1.178271,0 -1.272203,-0.0024 -1.31286,-0.03591 -0.07376,-0.06047 -1.274288,-2.160327 -1.274288,-2.228806 0,-0.08717 1.217953,-2.192688 1.294556,-2.237935 0.04993,-0.02955 0.191383,-0.0331 1.294629,-0.03302 1.142308,0 1.243013,0.0032 1.296199,0.03591 0.04139,0.02569 0.23072,0.336062 0.672165,1.101982 0.499785,0.867155 0.614259,1.07978 0.613268,1.139087 -8.05e-4,0.05701 -0.133123,0.301066 -0.606335,1.119632 z"
         id="path13588-2" />
      <path
         style="fill:none;stroke:#ff0000;stroke-width:0.444;stroke-dasharray:none;stroke-opacity:1"
         d="m 26.418743,31.346673 c -0.441445,0.765919 -0.630742,1.076262 -0.672164,1.101982 -0.05323,0.03302 -0.153891,0.03583 -1.296199,0.03591 -1.103246,0 -1.244663,-0.0032 -1.294629,-0.03302 -0.07658,-0.04525 -1.294557,-2.150761 -1.294557,-2.237945 0,-0.06845 1.200568,-2.168331 1.274289,-2.228805 0.04066,-0.03333 0.134589,-0.03592 1.312859,-0.03592 h 1.269071 l 0.05162,0.04614 c 0.02835,0.02537 0.324427,0.519432 0.657911,1.097857 0.460916,0.799467 0.606328,1.067977 0.606328,1.119633 0,0.0517 -0.147248,0.323445 -0.614493,1.134128 z"
         id="path13586-3" />
      <path
         style="fill:none;stroke:#ff0000;stroke-width:0.444;stroke-dasharray:none;stroke-opacity:1"
         d="m 26.428181,36.803693 c -0.332318,0.574986 -0.627884,1.069103 -0.656808,1.098026 l -0.05259,0.05259 h -1.260254 c -1.22826,0 -1.261645,-8.06e-4 -1.315162,-0.04107 -0.03285,-0.02456 -0.29886,-0.461726 -0.661889,-1.087767 -0.550629,-0.949555 -0.60698,-1.0553 -0.60698,-1.139087 0,-0.08378 0.05636,-0.18953 0.60698,-1.139078 0.363029,-0.626041 0.629051,-1.063218 0.661889,-1.08777 0.05355,-0.04001 0.0869,-0.04106 1.315235,-0.04106 h 1.260326 l 0.05919,0.0616 c 0.03253,0.0339 0.328283,0.528741 0.657162,1.099727 0.467921,0.812398 0.597864,1.053408 0.597534,1.108293 -3.78e-4,0.05419 -0.13814,0.308419 -0.604636,1.115574 z"
         id="path13584-9" />
      <path
         style="fill:none;stroke:#ff0000;stroke-width:0.444;stroke-dasharray:none;stroke-opacity:1"
         d="m 26.425676,42.284885 c -0.332809,0.575695 -0.62831,1.0675 -0.656679,1.092898 l -0.05162,0.04614 h -1.269069 c -1.178271,0 -1.272203,-0.0024 -1.31286,-0.03591 -0.07376,-0.06047 -1.274288,-2.160335 -1.274288,-2.228805 0,-0.08718 1.217953,-2.192689 1.294556,-2.237944 0.04993,-0.02955 0.191383,-0.0331 1.294629,-0.03302 1.142308,0 1.243013,0.0032 1.296199,0.03591 0.04139,0.02569 0.23072,0.336063 0.672165,1.101983 0.499785,0.867155 0.614259,1.079773 0.613268,1.139078 -8.05e-4,0.05701 -0.133123,0.301075 -0.606335,1.119634 z"
         id="path13582-3" />
      <path
         style="fill:none;stroke:#ff0000;stroke-width:0.444;stroke-dasharray:none;stroke-opacity:1"
         d="m 26.418743,47.765859 c -0.441445,0.765921 -0.630742,1.076261 -0.672164,1.101982 -0.05323,0.03302 -0.153891,0.03583 -1.296199,0.03592 -1.103246,0 -1.244663,-0.0032 -1.294629,-0.03302 -0.07658,-0.04526 -1.294557,-2.150759 -1.294557,-2.237935 0,-0.06845 1.200568,-2.168339 1.274289,-2.228814 0.04066,-0.03333 0.134589,-0.03591 1.312859,-0.03591 h 1.269071 l 0.05162,0.04614 c 0.02835,0.02537 0.324427,0.519432 0.657911,1.097849 0.460916,0.799467 0.606328,1.067977 0.606328,1.119642 0,0.0517 -0.147248,0.323436 -0.614493,1.134118 z"
         id="path13580-7" />
      <path
         style="fill:none;stroke:#ff0000;stroke-width:0.444;stroke-dasharray:none;stroke-opacity:1"
         d="m 26.428181,53.222879 c -0.332318,0.574987 -0.627884,1.069103 -0.656808,1.098035 l -0.05259,0.05259 h -1.260254 c -1.22826,0 -1.261645,-8.06e-4 -1.315162,-0.04107 -0.03285,-0.02456 -0.29886,-0.461727 -0.661889,-1.087766 -0.550629,-0.949549 -0.60698,-1.055301 -0.60698,-1.13908 0,-0.08379 0.05636,-0.189532 0.60698,-1.13908 0.363029,-0.626048 0.629051,-1.063224 0.661889,-1.087777 0.05355,-0.04001 0.0869,-0.04107 1.315235,-0.04107 h 1.260326 l 0.05919,0.0616 c 0.03253,0.03382 0.328283,0.528742 0.657162,1.099728 0.467921,0.812397 0.597864,1.053416 0.597534,1.108293 -3.78e-4,0.05419 -0.13814,0.308418 -0.604636,1.115574 z"
         id="path13578-0" />
      <path
         style="fill:none;stroke:#ff0000;stroke-width:0.444;stroke-dasharray:none;stroke-opacity:1"
         d="m 26.425676,58.70407 c -0.332809,0.575697 -0.62831,1.06751 -0.656679,1.092906 l -0.05162,0.04614 h -1.269069 c -1.178271,0 -1.272203,-0.0024 -1.31286,-0.03592 -0.07376,-0.06047 -1.274288,-2.160335 -1.274288,-2.228805 0,-0.08718 1.217953,-2.19269 1.294556,-2.237945 0.04993,-0.02955 0.191383,-0.0331 1.294629,-0.03302 1.142308,0 1.243013,0.0032 1.296199,0.03592 0.04139,0.02569 0.23072,0.336062 0.672165,1.101981 0.499785,0.867155 0.614259,1.079781 0.613268,1.139079 -8.05e-4,0.05701 -0.133123,0.301074 -0.606335,1.119633 z"
         id="path13576-9" />
      <path
         style="fill:none;stroke:#ff0000;stroke-width:0.444;stroke-dasharray:none;stroke-opacity:1"
         d="m 26.418743,64.185054 c -0.441445,0.765918 -0.630742,1.076254 -0.672164,1.101982 -0.05323,0.03302 -0.153891,0.03583 -1.296199,0.03591 -1.103246,0 -1.244663,-0.0032 -1.294629,-0.03302 -0.07658,-0.04526 -1.294557,-2.150768 -1.294557,-2.237944 0,-0.06845 1.200568,-2.168331 1.274289,-2.228805 0.04066,-0.03333 0.134589,-0.03592 1.312859,-0.03592 h 1.269071 l 0.05162,0.04614 c 0.02835,0.02537 0.324427,0.519434 0.657911,1.09786 0.460916,0.799466 0.606328,1.067975 0.606328,1.119632 0,0.0517 -0.147248,0.323436 -0.614493,1.134128 z"
         id="path13574-9" />
      <path
         style="fill:none;stroke:#ff0000;stroke-width:0.444;stroke-dasharray:none;stroke-opacity:1"
         d="m 26.428181,69.642073 c -0.332318,0.574987 -0.627884,1.069095 -0.656808,1.098026 l -0.05259,0.05259 h -1.260254 c -1.22826,0 -1.261645,-8.05e-4 -1.315162,-0.04107 -0.03285,-0.02456 -0.29886,-0.461736 -0.661889,-1.087777 -0.550629,-0.949547 -0.60698,-1.055292 -0.60698,-1.139078 0,-0.08379 0.05636,-0.189531 0.60698,-1.139079 0.363029,-0.62604 0.629051,-1.063226 0.661889,-1.08777 0.05355,-0.04001 0.0869,-0.04107 1.315235,-0.04107 h 1.260326 l 0.05919,0.0616 c 0.03253,0.0339 0.328283,0.528741 0.657162,1.099733 0.467921,0.812399 0.597864,1.05341 0.597534,1.108296 -3.78e-4,0.05419 -0.13814,0.30841 -0.604636,1.115573 z"
         id="path13572-4" />
      <path
         style="fill:none;stroke:#ff0000;stroke-width:0.444;stroke-dasharray:none;stroke-opacity:1"
         d="m 26.425676,75.123265 c -0.332809,0.5757 -0.62831,1.067502 -0.656679,1.092898 l -0.05162,0.04619 h -1.269069 c -1.178271,0 -1.272203,-0.0024 -1.31286,-0.0359 -0.07376,-0.06047 -1.274288,-2.160333 -1.274288,-2.228812 0,-0.08717 1.217953,-2.192689 1.294556,-2.237935 0.04993,-0.02956 0.191383,-0.0331 1.294629,-0.03302 1.142308,0 1.243013,0.0032 1.296199,0.03591 0.04139,0.02569 0.23072,0.336056 0.672165,1.101974 0.499785,0.867164 0.614259,1.079782 0.613268,1.139087 -8.05e-4,0.05701 -0.133123,0.301071 -0.606335,1.119638 z"
         id="path13570-3" />
      <path
         style="fill:none;stroke:#ff0000;stroke-width:0.444;stroke-dasharray:none;stroke-opacity:1"
         d="m 26.418743,80.604231 c -0.441445,0.765919 -0.630742,1.076267 -0.672164,1.10198 -0.05323,0.03305 -0.153891,0.03583 -1.296199,0.03591 -1.103246,0 -1.244663,-0.0033 -1.294629,-0.03305 -0.07658,-0.04529 -1.294557,-2.150762 -1.294557,-2.237948 0,-0.06846 1.200568,-2.16832 1.274289,-2.228796 0.04066,-0.03338 0.134589,-0.0359 1.312859,-0.0359 h 1.269071 l 0.05162,0.0461 c 0.02835,0.02538 0.324427,0.519447 0.657911,1.097861 0.460916,0.799462 0.606328,1.067969 0.606328,1.119633 0,0.05166 -0.147248,0.323435 -0.614493,1.134114 z"
         id="path13568-4" />
      <path
         style="fill:none;stroke:#ff0000;stroke-width:0.444;stroke-dasharray:none;stroke-opacity:1"
         d="m 26.428181,86.061244 c -0.332318,0.574993 -0.627884,1.069114 -0.656808,1.098045 l -0.05259,0.05257 h -1.260254 c -1.22826,0 -1.261645,-8.11e-4 -1.315162,-0.04105 -0.03285,-0.02458 -0.29886,-0.461734 -0.661889,-1.08777 -0.550629,-0.949557 -0.60698,-1.055296 -0.60698,-1.139076 0,-0.0838 0.05636,-0.189527 0.60698,-1.139094 0.363029,-0.626035 0.629051,-1.063208 0.661889,-1.087763 0.05355,-0.03998 0.0869,-0.04105 1.315235,-0.04105 h 1.260326 l 0.05919,0.06161 c 0.03253,0.03395 0.328283,0.52874 0.657162,1.099728 0.467921,0.812397 0.597864,1.05342 0.597534,1.108295 -3.78e-4,0.05419 -0.13814,0.308417 -0.604636,1.115573 z"
         id="path13566-3" />
      <path
         style="fill:none;stroke:#ff0000;stroke-width:0.444;stroke-dasharray:none;stroke-opacity:1"
         d="m 31.167642,12.176196 c -0.332882,0.575697 -0.628326,1.069813 -0.656534,1.098029 l -0.0513,0.0513 h -1.260253 c -1.231802,0 -1.2615,-8.05e-4 -1.315701,-0.04139 -0.03358,-0.02505 -0.294644,-0.453936 -0.66216,-1.087771 -0.550354,-0.949194 -0.606705,-1.054948 -0.606705,-1.138733 0,-0.08378 0.05636,-0.189539 0.606705,-1.1387249 0.367516,-0.633843 0.628568,-1.062702 0.662164,-1.087777 0.05419,-0.04051 0.0839,-0.04139 1.315774,-0.04139 h 1.260325 l 0.05886,0.0616 c 0.03238,0.0339 0.328082,0.529225 0.657155,1.10079 0.465689,0.8088379 0.598169,1.0545189 0.59763,1.1082939 -5.64e-4,0.0525 -0.145983,0.320352 -0.605941,1.115808 z"
         id="path13556-5" />
      <path
         style="fill:none;stroke:#ff0000;stroke-width:0.444;stroke-dasharray:none;stroke-opacity:1"
         d="M 31.699581,16.722256 C 31.354523,17.34244 30.550243,18.712168 30.509513,18.749 l -0.05105,0.04614 H 29.188266 27.918069 L 27.867249,18.749 c -0.08418,-0.07649 -1.26502,-2.14787 -1.26502,-2.219014 0,-0.08941 1.215055,-2.190507 1.293591,-2.236897 0.05121,-0.03028 0.183362,-0.03375 1.289498,-0.03375 0.914253,0 1.246378,0.0065 1.286447,0.02464 0.06079,0.0277 0.04775,0.0065 0.787564,1.288582 0.364069,0.63096 0.514868,0.910589 0.514707,0.954364 -1.29e-4,0.03406 -0.03366,0.121946 -0.07448,0.19532 z"
         id="path13554-2" />
      <path
         style="fill:none;stroke:#ff0000;stroke-width:0.444;stroke-dasharray:none;stroke-opacity:1"
         d="m 31.259335,22.961894 c -0.739805,1.28218 -0.726801,1.260897 -0.787564,1.288582 -0.04011,0.01828 -0.372194,0.02464 -1.286447,0.02464 -1.106136,0 -1.238285,-0.0032 -1.289499,-0.03375 -0.07851,-0.04638 -1.29359,-2.147484 -1.29359,-2.236899 0,-0.0711 1.18084,-2.142505 1.26502,-2.219013 l 0.05082,-0.04614 h 1.270197 1.270197 l 0.05113,0.04614 c 0.0281,0.02537 0.309086,0.494116 0.624382,1.041588 0.663144,1.151472 0.640333,1.109261 0.640333,1.184584 0,0.03816 -0.175174,0.361404 -0.514941,0.950257 z"
         id="path13552-4" />
      <path
         style="fill:none;stroke:#ff0000;stroke-width:0.444;stroke-dasharray:none;stroke-opacity:1"
         d="m 31.167642,28.595383 c -0.332882,0.575696 -0.628326,1.069811 -0.656534,1.098035 l -0.0513,0.0513 h -1.260253 c -1.231802,0 -1.2615,-8.05e-4 -1.315701,-0.04139 -0.03358,-0.02505 -0.294644,-0.453941 -0.66216,-1.087784 -0.550354,-0.949185 -0.606705,-1.054946 -0.606705,-1.138725 0,-0.08379 0.05636,-0.189539 0.606705,-1.138733 0.367516,-0.633842 0.628568,-1.062693 0.662164,-1.08777 0.05419,-0.0405 0.0839,-0.04139 1.315774,-0.04139 h 1.260325 l 0.05886,0.0616 c 0.03238,0.0339 0.328082,0.529217 0.657155,1.100782 0.465689,0.808847 0.598169,1.054528 0.59763,1.108295 -5.64e-4,0.0525 -0.145983,0.32035 -0.605941,1.115807 z"
         id="path13550-5" />
      <path
         style="fill:none;stroke:#ff0000;stroke-width:0.444;stroke-dasharray:none;stroke-opacity:1"
         d="m 31.699581,33.141449 c -0.345058,0.620178 -1.149338,1.989913 -1.190068,2.026745 l -0.05105,0.04614 h -1.270197 -1.270197 l -0.05082,-0.04614 c -0.08418,-0.07649 -1.26502,-2.147878 -1.26502,-2.219022 0,-0.08941 1.215055,-2.190499 1.293591,-2.236896 0.05121,-0.03027 0.183362,-0.03375 1.289498,-0.03375 0.914254,0 1.246378,0.0065 1.286447,0.02464 0.06079,0.0277 0.04775,0.0065 0.787564,1.288582 0.364069,0.630968 0.514869,0.91059 0.514707,0.954372 -1.29e-4,0.03406 -0.03366,0.121946 -0.07448,0.19532 z"
         id="path13548-7" />
      <path
         style="fill:none;stroke:#ff0000;stroke-width:0.444;stroke-dasharray:none;stroke-opacity:1"
         d="m 31.259335,39.381081 c -0.739805,1.282179 -0.726801,1.260897 -0.787564,1.288582 -0.04011,0.01828 -0.372194,0.02463 -1.286447,0.02463 -1.106136,0 -1.238285,-0.0032 -1.289499,-0.03374 -0.07851,-0.04638 -1.29359,-2.147484 -1.29359,-2.236898 0,-0.07118 1.18084,-2.142499 1.26502,-2.219013 l 0.05082,-0.04614 h 1.270197 1.270197 l 0.05113,0.04614 c 0.0281,0.02537 0.309086,0.494116 0.624382,1.041587 0.663144,1.151472 0.640333,1.109261 0.640333,1.184592 0,0.03816 -0.175174,0.361395 -0.514941,0.950249 z"
         id="path13546-4" />
      <path
         style="fill:none;stroke:#ff0000;stroke-width:0.444;stroke-dasharray:none;stroke-opacity:1"
         d="m 31.167642,45.014569 c -0.332882,0.575705 -0.628326,1.069821 -0.656534,1.098037 l -0.0513,0.0513 h -1.260253 c -1.231802,0 -1.2615,-8.04e-4 -1.315701,-0.04139 -0.03358,-0.02505 -0.294644,-0.453941 -0.66216,-1.087776 -0.550354,-0.949193 -0.606705,-1.054947 -0.606705,-1.138733 0,-0.08378 0.05636,-0.189539 0.606705,-1.138733 0.367516,-0.633834 0.628568,-1.062693 0.662164,-1.087769 0.05419,-0.0405 0.0839,-0.04139 1.315774,-0.04139 h 1.260325 l 0.05886,0.0616 c 0.03238,0.0339 0.328082,0.529217 0.657155,1.100783 0.465689,0.808846 0.598169,1.054528 0.59763,1.108303 -5.64e-4,0.0525 -0.145983,0.320343 -0.605941,1.115799 z"
         id="path13544-5" />
      <path
         style="fill:none;stroke:#ff0000;stroke-width:0.444;stroke-dasharray:none;stroke-opacity:1"
         d="m 31.699581,49.560636 c -0.345058,0.620177 -1.149338,1.989912 -1.190068,2.026744 l -0.05105,0.04614 h -1.270197 -1.270197 l -0.05082,-0.04614 c -0.08418,-0.07649 -1.26502,-2.14787 -1.26502,-2.219013 0,-0.08941 1.215055,-2.190508 1.293591,-2.236898 0.05121,-0.03027 0.183362,-0.03375 1.289498,-0.03375 0.914254,0 1.246378,0.0065 1.286447,0.02464 0.06079,0.02771 0.04775,0.0065 0.787564,1.288582 0.364069,0.630961 0.514869,0.91059 0.514707,0.954364 -1.29e-4,0.03406 -0.03366,0.121947 -0.07448,0.19532 z"
         id="path13542-2" />
      <path
         style="fill:none;stroke:#ff0000;stroke-width:0.444;stroke-dasharray:none;stroke-opacity:1"
         d="m 31.259335,55.800274 c -0.739805,1.282172 -0.726801,1.260898 -0.787564,1.288582 -0.04011,0.01828 -0.372194,0.02464 -1.286447,0.02464 -1.106136,0 -1.238285,-0.0032 -1.289499,-0.03375 -0.07851,-0.04638 -1.29359,-2.147483 -1.29359,-2.236897 0,-0.07119 1.18084,-2.142507 1.26502,-2.219021 l 0.05082,-0.04614 h 1.270197 1.270197 l 0.05113,0.04614 c 0.0281,0.02544 0.309086,0.494115 0.624382,1.041595 0.663144,1.151473 0.640333,1.109261 0.640333,1.184584 0,0.03816 -0.175174,0.361396 -0.514941,0.950257 z"
         id="path13540-8" />
      <path
         style="fill:none;stroke:#ff0000;stroke-width:0.444;stroke-dasharray:none;stroke-opacity:1"
         d="m 31.167642,61.433764 c -0.332882,0.575695 -0.628326,1.069811 -0.656534,1.098035 l -0.0513,0.0513 h -1.260253 c -1.231802,0 -1.2615,-8.05e-4 -1.315701,-0.04139 -0.03358,-0.02505 -0.294644,-0.453937 -0.66216,-1.08777 -0.550354,-0.949194 -0.606705,-1.054948 -0.606705,-1.138733 0,-0.08378 0.05636,-0.189539 0.606705,-1.138726 0.367516,-0.633842 0.628568,-1.062692 0.662164,-1.087777 0.05419,-0.0405 0.0839,-0.04139 1.315774,-0.04139 h 1.260325 l 0.05886,0.0616 c 0.03238,0.0339 0.328082,0.529217 0.657155,1.100782 0.465689,0.808846 0.598169,1.05452 0.59763,1.108294 -5.64e-4,0.0525 -0.145983,0.320351 -0.605941,1.115808 z"
         id="path13538-7" />
      <path
         style="fill:none;stroke:#ff0000;stroke-width:0.444;stroke-dasharray:none;stroke-opacity:1"
         d="m 31.699581,65.979822 c -0.345058,0.620186 -1.149338,1.989912 -1.190068,2.026752 l -0.05105,0.04614 h -1.270197 -1.270197 l -0.05082,-0.04614 c -0.08418,-0.07649 -1.26502,-2.147878 -1.26502,-2.219022 0,-0.08941 1.215055,-2.190506 1.293591,-2.236896 0.05121,-0.03028 0.183362,-0.03375 1.289498,-0.03375 0.914254,0 1.246378,0.0065 1.286447,0.02465 0.06079,0.02771 0.04775,0.0065 0.787564,1.288582 0.364069,0.630968 0.514869,0.910589 0.514707,0.954363 -1.29e-4,0.03406 -0.03366,0.121955 -0.07448,0.19532 z"
         id="path13536-2" />
      <path
         style="fill:none;stroke:#ff0000;stroke-width:0.444;stroke-dasharray:none;stroke-opacity:1"
         d="m 31.259335,72.219461 c -0.739805,1.28218 -0.726801,1.260898 -0.787564,1.288582 -0.04011,0.01828 -0.372194,0.02464 -1.286447,0.02464 -1.106136,0 -1.238285,-0.0032 -1.289499,-0.03375 -0.07851,-0.04638 -1.29359,-2.147483 -1.29359,-2.236897 0,-0.0711 1.18084,-2.142507 1.26502,-2.219014 l 0.05082,-0.04622 h 1.270197 1.270197 l 0.05113,0.04622 c 0.0281,0.02537 0.309086,0.494117 0.624382,1.041588 0.663144,1.151473 0.640333,1.109261 0.640333,1.184584 0,0.03816 -0.175174,0.361404 -0.514941,0.950257 z"
         id="path13534-9" />
      <path
         style="fill:none;stroke:#ff0000;stroke-width:0.444;stroke-dasharray:none;stroke-opacity:1"
         d="m 31.167642,77.852955 c -0.332882,0.575698 -0.628326,1.069807 -0.656534,1.098032 l -0.0513,0.05125 h -1.260253 c -1.231802,0 -1.2615,-7.99e-4 -1.315701,-0.04138 -0.03358,-0.02505 -0.294644,-0.453925 -0.66216,-1.087755 -0.550354,-0.949198 -0.606705,-1.054957 -0.606705,-1.13874 0,-0.08378 0.05636,-0.189541 0.606705,-1.138734 0.367516,-0.633835 0.628568,-1.062691 0.662164,-1.087767 0.05419,-0.04051 0.0839,-0.04139 1.315774,-0.04139 h 1.260325 l 0.05886,0.0616 c 0.03238,0.0339 0.328082,0.52922 0.657155,1.100783 0.465689,0.808843 0.598169,1.054527 0.59763,1.108296 -5.64e-4,0.05247 -0.145983,0.320345 -0.605941,1.115809 z"
         id="path13532-1" />
      <path
         style="fill:none;stroke:#ff0000;stroke-width:0.444;stroke-dasharray:none;stroke-opacity:1"
         d="m 31.699581,82.399005 c -0.345058,0.620183 -1.149338,1.989912 -1.190068,2.026754 l -0.05105,0.04617 h -1.270197 -1.270197 l -0.05082,-0.04617 c -0.08418,-0.07646 -1.26502,-2.147878 -1.26502,-2.219028 0,-0.0894 1.215055,-2.190498 1.293591,-2.236898 0.05121,-0.03028 0.183362,-0.0337 1.289498,-0.0337 0.914254,0 1.246378,0.0065 1.286447,0.02464 0.06079,0.02767 0.04775,0.0065 0.787564,1.288585 0.364069,0.630963 0.514869,0.910588 0.514707,0.954368 -1.29e-4,0.03403 -0.03366,0.121948 -0.07448,0.195319 z"
         id="path13530-5" />
      <path
         style="fill:none;stroke:#ff0000;stroke-width:0.444;stroke-dasharray:none;stroke-opacity:1"
         d="m 36.480457,8.4408301 c -0.207689,0.384997 -1.191678,2.0636879 -1.230105,2.0985789 l -0.05089,0.04614 h -1.2702 -1.270197 l -0.05081,-0.04614 c -0.04075,-0.03712 -1.09802,-1.8428419 -1.233277,-2.1064219 -0.01957,-0.03816 -0.0322,-0.09821 -0.02802,-0.133407 0.004,-0.03624 0.274291,-0.5253604 0.622729,-1.1282064 0.461537,-0.798525 0.628955,-1.071383 0.67057,-1.092907 0.08258,-0.04268 2.495673,-0.04252 2.578267,2.09e-4 0.07626,0.03946 1.297117,2.150002 1.295885,2.2402554 -3.71e-4,0.03318 -0.01578,0.08805 -0.03406,0.121915 z"
         id="path13516-9" />
      <path
         style="fill:none;stroke:#ff0000;stroke-width:0.444;stroke-dasharray:none;stroke-opacity:1"
         d="m 35.894221,14.933357 c -0.426677,0.738533 -0.636637,1.083026 -0.671915,1.102441 -0.07666,0.0422 -2.500488,0.04316 -2.581962,8.05e-4 -0.04163,-0.0215 -0.209035,-0.294374 -0.670571,-1.092898 -0.348438,-0.60285 -0.618406,-1.091965 -0.62273,-1.128209 -0.004,-0.03518 0.0084,-0.09524 0.02802,-0.133414 0.135258,-0.263581 1.1925,-2.069335 1.233278,-2.106416 l 0.05082,-0.04614 h 1.270197 1.270198 l 0.05089,0.04614 c 0.02794,0.02537 0.308757,0.494117 0.623963,1.04159 0.668669,1.161424 0.641073,1.110419 0.640752,1.184245 -1.62e-4,0.03768 -0.213834,0.42716 -0.620846,1.131655 z"
         id="path13514-7" />
      <path
         style="fill:none;stroke:#ff0000;stroke-width:0.444;stroke-dasharray:none;stroke-opacity:1"
         d="m 35.902547,20.394692 c -0.38114,0.658814 -0.632055,1.071568 -0.667502,1.098036 -0.05597,0.04179 -0.07545,0.04243 -1.30575,0.04243 -1.229484,0 -1.249841,-6.52e-4 -1.305644,-0.04235 -0.03527,-0.02633 -0.287281,-0.440809 -0.667615,-1.098028 -0.483431,-0.835396 -0.610925,-1.070706 -0.610925,-1.127549 0,-0.05686 0.127494,-0.292151 0.610925,-1.127548 0.380334,-0.657218 0.632329,-1.07168 0.667615,-1.098027 0.0558,-0.04163 0.07617,-0.04236 1.305644,-0.04236 1.230282,0 1.249802,6.37e-4 1.30575,0.04244 0.03544,0.0265 0.286362,0.439223 0.667502,1.098037 0.483196,0.835218 0.610707,1.070625 0.610707,1.127459 0,0.05686 -0.127511,0.29224 -0.610707,1.12746 z"
         id="path13512-8" />
      <path
         style="fill:none;stroke:#ff0000;stroke-width:0.444;stroke-dasharray:none;stroke-opacity:1"
         d="m 36.480457,24.860016 c -0.207689,0.384997 -1.191678,2.063697 -1.230105,2.09858 l -0.05089,0.04622 h -1.2702 -1.270197 l -0.05081,-0.04622 c -0.04075,-0.03703 -1.09802,-1.842834 -1.233277,-2.106422 -0.01957,-0.03816 -0.0322,-0.09821 -0.02802,-0.133406 0.004,-0.03624 0.274291,-0.52536 0.622729,-1.128209 0.461537,-0.798524 0.628955,-1.071374 0.67057,-1.092898 0.08258,-0.04268 2.495673,-0.04252 2.578267,1.85e-4 0.07626,0.03945 1.297117,2.150003 1.295885,2.240263 -3.71e-4,0.03317 -0.01578,0.08804 -0.03406,0.121907 z"
         id="path13510-5" />
      <path
         style="fill:none;stroke:#ff0000;stroke-width:0.444;stroke-dasharray:none;stroke-opacity:1"
         d="m 35.894221,31.352552 c -0.426677,0.738533 -0.636637,1.083018 -0.671915,1.102432 -0.07666,0.04219 -2.500488,0.04316 -2.581962,8.05e-4 -0.04163,-0.0215 -0.209035,-0.294374 -0.670571,-1.092898 -0.348438,-0.602849 -0.618406,-1.091965 -0.62273,-1.128208 -0.004,-0.03518 0.0084,-0.09523 0.02802,-0.133406 0.135258,-0.26359 1.1925,-2.069342 1.233278,-2.106424 l 0.05082,-0.04614 h 1.270197 1.270198 l 0.05089,0.04614 c 0.02794,0.02537 0.308757,0.494117 0.623963,1.041588 0.668669,1.161426 0.641073,1.110421 0.640752,1.184247 -1.62e-4,0.03768 -0.213834,0.427159 -0.620846,1.131661 z"
         id="path13508-3" />
      <path
         style="fill:none;stroke:#ff0000;stroke-width:0.444;stroke-dasharray:none;stroke-opacity:1"
         d="m 35.902547,36.813878 c -0.38114,0.658822 -0.632055,1.071568 -0.667502,1.098036 -0.05597,0.04179 -0.07545,0.04244 -1.30575,0.04244 -1.229484,0 -1.249841,-7.42e-4 -1.305644,-0.04228 -0.03527,-0.02633 -0.287281,-0.440818 -0.667615,-1.098036 -0.483431,-0.835396 -0.610925,-1.070707 -0.610925,-1.127549 0,-0.05686 0.127494,-0.292143 0.610925,-1.127539 0.380334,-0.657228 0.632329,-1.071688 0.667615,-1.098037 0.0558,-0.04164 0.07617,-0.04235 1.305644,-0.04235 1.230282,0 1.249802,5.64e-4 1.30575,0.04243 0.03544,0.0265 0.286362,0.439214 0.667502,1.098028 0.483196,0.835219 0.610707,1.070626 0.610707,1.12746 0,0.05686 -0.127511,0.292241 -0.610707,1.127459 z"
         id="path13506-9" />
      <path
         style="fill:none;stroke:#ff0000;stroke-width:0.444;stroke-dasharray:none;stroke-opacity:1"
         d="M 36.480457,41.279211 C 36.272768,41.6642 35.288779,43.3429 35.250352,43.377783 l -0.05089,0.04614 h -1.2702 -1.270197 l -0.05081,-0.04614 c -0.04075,-0.03704 -1.09802,-1.842834 -1.233277,-2.106416 -0.01957,-0.03816 -0.0322,-0.09821 -0.02802,-0.133405 0.004,-0.03624 0.274291,-0.52536 0.622729,-1.128209 0.461537,-0.798523 0.628955,-1.071382 0.67057,-1.092905 0.08258,-0.04268 2.495673,-0.04252 2.578267,1.85e-4 0.07626,0.03946 1.297117,2.150003 1.295885,2.240263 -3.71e-4,0.03318 -0.01578,0.08805 -0.03406,0.121906 z"
         id="path13504-9" />
      <path
         style="fill:none;stroke:#ff0000;stroke-width:0.444;stroke-dasharray:none;stroke-opacity:1"
         d="m 35.894221,47.771738 c -0.426677,0.738533 -0.636637,1.083026 -0.671915,1.102441 -0.07666,0.04219 -2.500488,0.04316 -2.581962,8.05e-4 -0.04163,-0.0215 -0.209035,-0.294383 -0.670571,-1.092907 -0.348438,-0.602849 -0.618406,-1.091963 -0.62273,-1.128208 -0.004,-0.03518 0.0084,-0.09523 0.02802,-0.133406 0.135258,-0.26359 1.1925,-2.069341 1.233278,-2.106424 l 0.05082,-0.04614 h 1.270197 1.270198 l 0.05089,0.04614 c 0.02794,0.02537 0.308757,0.494117 0.623963,1.041598 0.668669,1.161416 0.641073,1.110412 0.640752,1.184237 -1.62e-4,0.03768 -0.213834,0.427159 -0.620846,1.131663 z"
         id="path13502-9" />
      <path
         style="fill:none;stroke:#ff0000;stroke-width:0.444;stroke-dasharray:none;stroke-opacity:1"
         d="m 35.902547,53.233073 c -0.38114,0.658814 -0.632055,1.071568 -0.667502,1.098035 -0.05597,0.04179 -0.07545,0.04243 -1.30575,0.04243 -1.229484,0 -1.249841,-7.48e-4 -1.305644,-0.04235 -0.03527,-0.02633 -0.287281,-0.44081 -0.667615,-1.098037 -0.483431,-0.835387 -0.610925,-1.070697 -0.610925,-1.127539 0,-0.05686 0.127494,-0.292153 0.610925,-1.127549 0.380334,-0.657218 0.632329,-1.071688 0.667615,-1.098035 0.0558,-0.04164 0.07617,-0.04228 1.305644,-0.04228 1.230282,0 1.249802,5.55e-4 1.30575,0.04243 0.03544,0.0265 0.286362,0.439213 0.667502,1.098036 0.483196,0.835219 0.610707,1.070624 0.610707,1.127459 0,0.05686 -0.127511,0.292239 -0.610707,1.127459 z"
         id="path13500-0" />
      <path
         style="fill:none;stroke:#ff0000;stroke-width:0.444;stroke-dasharray:none;stroke-opacity:1"
         d="m 36.480457,57.698397 c -0.207689,0.384996 -1.191678,2.063688 -1.230105,2.098579 l -0.05089,0.04614 h -1.2702 -1.270197 l -0.05081,-0.04614 c -0.04075,-0.03712 -1.09802,-1.842833 -1.233277,-2.106422 -0.01957,-0.03816 -0.0322,-0.09821 -0.02802,-0.133406 0.004,-0.03623 0.274291,-0.52536 0.622729,-1.128207 0.461537,-0.798525 0.628955,-1.071383 0.67057,-1.0929 0.08258,-0.04268 2.495673,-0.04252 2.578267,1.86e-4 0.07626,0.03945 1.297117,2.150003 1.295885,2.240256 -3.71e-4,0.03317 -0.01578,0.08805 -0.03406,0.121906 z"
         id="path13498-2" />
      <path
         style="fill:none;stroke:#ff0000;stroke-width:0.444;stroke-dasharray:none;stroke-opacity:1"
         d="m 35.894221,64.190933 c -0.426677,0.738524 -0.636637,1.083017 -0.671915,1.102431 -0.07666,0.0422 -2.500488,0.04316 -2.581962,8.06e-4 -0.04163,-0.0215 -0.209035,-0.294374 -0.670571,-1.092898 -0.348438,-0.602849 -0.618406,-1.091966 -0.62273,-1.128217 -0.004,-0.03518 0.0084,-0.09523 0.02802,-0.133405 0.135258,-0.263583 1.1925,-2.069343 1.233278,-2.106416 l 0.05082,-0.04614 h 1.270197 1.270198 l 0.05089,0.04614 c 0.02794,0.02537 0.308757,0.494117 0.623963,1.041588 0.668669,1.161425 0.641073,1.11042 0.640752,1.184246 -1.62e-4,0.03768 -0.213834,0.42716 -0.620846,1.131655 z"
         id="path13496-1" />
      <path
         style="fill:none;stroke:#ff0000;stroke-width:0.444;stroke-dasharray:none;stroke-opacity:1"
         d="m 35.902547,69.652259 c -0.38114,0.658821 -0.632055,1.071568 -0.667502,1.098036 -0.05597,0.04179 -0.07545,0.04243 -1.30575,0.04243 -1.229484,0 -1.249841,-7.42e-4 -1.305644,-0.04235 -0.03527,-0.02633 -0.287281,-0.440808 -0.667615,-1.098028 -0.483431,-0.835396 -0.610925,-1.070706 -0.610925,-1.127548 0,-0.05686 0.127494,-0.292152 0.610925,-1.12754 0.380334,-0.657227 0.632329,-1.071688 0.667615,-1.098036 0.0558,-0.04164 0.07617,-0.04235 1.305644,-0.04235 1.230282,0 1.249802,5.56e-4 1.30575,0.04243 0.03544,0.0265 0.286362,0.439223 0.667502,1.098037 0.483196,0.835218 0.610707,1.070624 0.610707,1.127459 0,0.05686 -0.127511,0.29224 -0.610707,1.12746 z"
         id="path13494-7" />
      <path
         style="fill:none;stroke:#ff0000;stroke-width:0.444;stroke-dasharray:none;stroke-opacity:1"
         d="m 36.480457,74.117583 c -0.207689,0.384997 -1.191678,2.063702 -1.230105,2.09858 l -0.05089,0.04619 h -1.2702 -1.270197 l -0.05081,-0.04619 c -0.04075,-0.03713 -1.09802,-1.842834 -1.233277,-2.106415 -0.01957,-0.03816 -0.0322,-0.09821 -0.02802,-0.133412 0.004,-0.03624 0.274291,-0.525361 0.622729,-1.128209 0.461537,-0.798516 0.628955,-1.071376 0.67057,-1.092898 0.08258,-0.04268 2.495673,-0.04252 2.578267,1.85e-4 0.07626,0.03945 1.297117,2.150002 1.295885,2.240262 -3.71e-4,0.03318 -0.01578,0.08805 -0.03406,0.121907 z"
         id="path13492-4" />
      <path
         style="fill:none;stroke:#ff0000;stroke-width:0.444;stroke-dasharray:none;stroke-opacity:1"
         d="m 35.894221,80.610114 c -0.426677,0.738533 -0.636637,1.083017 -0.671915,1.102438 -0.07666,0.04219 -2.500488,0.04317 -2.581962,8.09e-4 -0.04163,-0.02147 -0.209035,-0.294379 -0.670571,-1.092898 -0.348438,-0.602851 -0.618406,-1.091967 -0.62273,-1.128206 -0.004,-0.03517 0.0084,-0.09523 0.02802,-0.133408 0.135258,-0.263586 1.1925,-2.069342 1.233278,-2.106422 l 0.05082,-0.04619 h 1.270197 1.270198 l 0.05089,0.04619 c 0.02794,0.02538 0.308757,0.494125 0.623963,1.041604 0.668669,1.161405 0.641073,1.110402 0.640752,1.18423 -1.62e-4,0.0377 -0.213834,0.427154 -0.620846,1.131649 z"
         id="path13490-5" />
      <path
         style="fill:none;stroke:#ff0000;stroke-width:0.444;stroke-dasharray:none;stroke-opacity:1"
         d="m 35.902547,86.071452 c -0.38114,0.658806 -0.632055,1.071562 -0.667502,1.098018 -0.05597,0.04182 -0.07545,0.04242 -1.30575,0.04242 -1.229484,0 -1.249841,-7.51e-4 -1.305644,-0.04233 -0.03527,-0.02637 -0.287281,-0.440809 -0.667615,-1.098036 -0.483431,-0.835396 -0.610925,-1.07071 -0.610925,-1.127539 0,-0.05684 0.127494,-0.29216 0.610925,-1.127555 0.380334,-0.657222 0.632329,-1.071681 0.667615,-1.098031 0.0558,-0.04162 0.07617,-0.04235 1.305644,-0.04235 1.230282,0 1.249802,5.63e-4 1.30575,0.04243 0.03544,0.02652 0.286362,0.439209 0.667502,1.098021 0.483196,0.835225 0.610707,1.070624 0.610707,1.127471 0,0.05684 -0.127511,0.292245 -0.610707,1.127461 z"
         id="path13488-7" />
      <circle
         style="fill:none;fill-opacity:1;stroke:#ff0000;stroke-width:0.444;stroke-linejoin:round;stroke-dasharray:none;stroke-opacity:1"
         id="path19416-4"
         cx="24.48181"
         cy="96.402779"
         r="2" />
      <circle
         style="fill:none;fill-opacity:1;stroke:#ff0000;stroke-width:0.444;stroke-linejoin:round;stroke-dasharray:none;stroke-opacity:1"
         id="path19416-6-8"
         cx="34.481812"
         cy="96.402977"
         r="2" />
    </g>
  </g>
</svg>
